<svg data-v-423bf9ae="" xmlns="http://www.w3.org/2000/svg" viewBox="0 0 551 90" class="iconLeftSlogan"><!----><!----><!----><g data-v-423bf9ae="" id="3b41e0e0-6f49-4e91-a121-ab624fe2244b" fill="#000000" transform="matrix(4.897958755493164,0,0,4.897958755493164,102.85115814208984,-18.514284133911133)"><path d="M2.16 3.78L2.16 13.02L1.46 13.02L1.46 3.78L2.16 3.78ZM8.40 12.31Q9.45 12.31 10.05 12.74Q10.65 13.17 10.65 13.90L10.65 13.90Q10.65 14.53 10.23 15.02Q9.80 15.50 9.04 15.76Q8.29 16.03 7.32 16.03L7.32 16.03Q5.74 16.03 4.90 15.52Q4.06 15.01 4.06 14.17L4.06 14.17Q4.06 13.62 4.40 13.23Q4.73 12.84 5.32 12.67L5.32 12.67Q4.90 12.49 4.66 12.17Q4.41 11.84 4.41 11.45L4.41 11.45Q4.41 10.95 4.74 10.60Q5.07 10.25 5.63 10.09L5.63 10.09Q5.05 9.80 4.75 9.30Q4.44 8.81 4.44 8.16L4.44 8.16Q4.44 7.13 5.21 6.50Q5.99 5.88 7.28 5.88L7.28 5.88Q8.18 5.88 8.86 6.20L8.86 6.20Q8.95 5.53 9.42 5.13Q9.90 4.73 10.61 4.73L10.61 4.73L10.78 5.35Q10.12 5.35 9.74 5.64Q9.37 5.94 9.31 6.48L9.31 6.48Q10.11 7.13 10.11 8.16L10.11 8.16Q10.11 9.20 9.33 9.83Q8.55 10.46 7.28 10.46L7.28 10.46Q6.85 10.46 6.33 10.36L6.33 10.36Q5.74 10.43 5.41 10.70Q5.08 10.98 5.08 11.35L5.08 11.35Q5.08 11.80 5.46 12.05Q5.84 12.31 6.59 12.31L6.59 12.31L8.40 12.31ZM5.14 8.16Q5.14 8.95 5.71 9.41Q6.29 9.87 7.28 9.87L7.28 9.87Q8.26 9.87 8.83 9.41Q9.41 8.95 9.41 8.16L9.41 8.16Q9.41 7.38 8.83 6.92Q8.26 6.47 7.28 6.47L7.28 6.47Q6.30 6.47 5.72 6.92Q5.14 7.38 5.14 8.16L5.14 8.16ZM7.39 15.44Q8.58 15.44 9.30 15.03Q10.02 14.62 10.02 13.99L10.02 13.99Q10.02 13.48 9.57 13.20Q9.11 12.91 8.25 12.91L8.25 12.91L6.44 12.91Q5.64 12.91 5.17 13.22Q4.70 13.54 4.70 14.06L4.70 14.06Q4.70 14.70 5.40 15.07Q6.10 15.44 7.39 15.44L7.39 15.44ZM14.91 5.88Q16.46 5.88 17.35 6.85Q18.24 7.83 18.24 9.52L18.24 9.52Q18.24 11.21 17.35 12.19Q16.46 13.16 14.91 13.16L14.91 13.16Q13.36 13.16 12.47 12.19Q11.58 11.21 11.58 9.52L11.58 9.52Q11.58 7.83 12.47 6.85Q13.36 5.88 14.91 5.88L14.91 5.88ZM14.91 6.48Q13.68 6.48 12.98 7.29Q12.28 8.11 12.28 9.52L12.28 9.52Q12.28 10.93 12.98 11.75Q13.68 12.56 14.91 12.56L14.91 12.56Q16.14 12.56 16.84 11.75Q17.54 10.93 17.54 9.52L17.54 9.52Q17.54 8.11 16.84 7.29Q16.14 6.48 14.91 6.48L14.91 6.48ZM23.23 5.88Q23.79 5.88 24.11 6.12L24.11 6.12L23.93 6.78Q23.60 6.52 23.03 6.52L23.03 6.52Q22.50 6.52 22.03 6.85Q21.56 7.18 21.27 7.78Q20.99 8.37 20.99 9.10L20.99 9.10L20.99 13.02L20.29 13.02L20.29 6.02L20.87 6.02L20.96 7.45Q21.25 6.71 21.83 6.29Q22.41 5.88 23.23 5.88L23.23 5.88ZM35.94 5.22L35.94 5.96L30.06 8.82L35.94 11.69L35.94 12.43L29.50 9.24L29.50 8.41L35.94 5.22ZM46.89 3.78L46.89 13.02L46.21 13.02L46.21 6.13L46.30 4.45L46.28 4.45L42.91 13.02L42.27 13.02L38.89 4.45L38.88 4.45L38.96 6.13L38.96 13.02L38.29 13.02L38.29 3.78L39.34 3.78L42.13 10.78L42.59 12.19L42.60 12.19L43.05 10.79L45.84 3.78L46.89 3.78ZM52.36 5.88Q53.91 5.88 54.80 6.85Q55.69 7.83 55.69 9.52L55.69 9.52Q55.69 11.21 54.80 12.19Q53.91 13.16 52.36 13.16L52.36 13.16Q50.81 13.16 49.92 12.19Q49.03 11.21 49.03 9.52L49.03 9.52Q49.03 7.83 49.92 6.85Q50.81 5.88 52.36 5.88L52.36 5.88ZM52.36 6.48Q51.13 6.48 50.43 7.29Q49.73 8.11 49.73 9.52L49.73 9.52Q49.73 10.93 50.43 11.75Q51.13 12.56 52.36 12.56L52.36 12.56Q53.59 12.56 54.29 11.75Q54.99 10.93 54.99 9.52L54.99 9.52Q54.99 8.11 54.29 7.29Q53.59 6.48 52.36 6.48L52.36 6.48ZM60.68 5.88Q61.24 5.88 61.56 6.12L61.56 6.12L61.38 6.78Q61.05 6.52 60.48 6.52L60.48 6.52Q59.95 6.52 59.48 6.85Q59.01 7.18 58.72 7.78Q58.44 8.37 58.44 9.10L58.44 9.10L58.44 13.02L57.74 13.02L57.74 6.02L58.32 6.02L58.41 7.45Q58.70 6.71 59.28 6.29Q59.86 5.88 60.68 5.88L60.68 5.88ZM68.47 12.56Q68.82 12.56 69.02 12.46L69.02 12.46L68.98 13.02Q68.73 13.16 68.29 13.16L68.29 13.16Q67.80 13.16 67.49 12.89Q67.19 12.63 67.14 11.97L67.14 11.97Q66.82 12.53 66.11 12.84Q65.39 13.16 64.61 13.16L64.61 13.16Q63.57 13.16 62.95 12.70Q62.33 12.24 62.33 11.38L62.33 11.38Q62.33 9.76 64.99 9.28L64.99 9.28L67.13 8.90L67.13 8.29Q67.13 7.45 66.63 6.97Q66.14 6.50 65.23 6.50L65.23 6.50Q63.56 6.50 62.99 7.98L62.99 7.98L62.45 7.59Q62.76 6.76 63.48 6.32Q64.19 5.88 65.23 5.88L65.23 5.88Q66.44 5.88 67.14 6.47Q67.83 7.07 67.83 8.20L67.83 8.20L67.83 11.82Q67.83 12.56 68.47 12.56L68.47 12.56ZM64.68 12.54Q65.27 12.54 65.83 12.34Q66.39 12.14 66.76 11.74Q67.13 11.34 67.13 10.78L67.13 10.78L67.13 9.48L65.21 9.83Q64.08 10.04 63.56 10.42Q63.04 10.79 63.04 11.38L63.04 11.38Q63.04 11.94 63.48 12.24Q63.91 12.54 64.68 12.54L64.68 12.54ZM76.27 9.35Q76.27 9.59 76.24 9.81L76.24 9.81L70.69 9.81Q70.76 11.10 71.45 11.82Q72.14 12.54 73.30 12.54L73.30 12.54Q74.13 12.54 74.72 12.21Q75.32 11.87 75.59 11.26L75.59 11.26L76.17 11.56Q75.78 12.33 75.05 12.75Q74.33 13.16 73.30 13.16L73.30 13.16Q71.75 13.16 70.88 12.19Q70 11.23 70 9.52L70 9.52Q70 7.81 70.85 6.85Q71.69 5.88 73.22 5.88L73.22 5.88Q74.65 5.88 75.46 6.83Q76.27 7.78 76.27 9.35L76.27 9.35ZM73.22 6.50Q72.09 6.50 71.43 7.20Q70.77 7.91 70.69 9.18L70.69 9.18L75.61 9.18Q75.54 7.92 74.92 7.21Q74.30 6.50 73.22 6.50L73.22 6.50ZM80.56 13.16Q79.49 13.16 78.71 12.74Q77.92 12.32 77.63 11.52L77.63 11.52L78.20 11.14Q78.41 11.84 79.06 12.19Q79.70 12.54 80.64 12.54L80.64 12.54Q81.59 12.54 82.13 12.18Q82.67 11.82 82.67 11.21L82.67 11.21Q82.67 10.70 82.21 10.39Q81.75 10.08 80.58 9.87L80.58 9.87Q79.11 9.60 78.51 9.16Q77.91 8.71 77.91 7.88L77.91 7.88Q77.91 7.34 78.25 6.87Q78.58 6.41 79.20 6.15Q79.81 5.88 80.60 5.88L80.60 5.88Q81.70 5.88 82.37 6.30Q83.03 6.72 83.29 7.59L83.29 7.59L82.68 7.94Q82.29 6.50 80.60 6.50L80.60 6.50Q80.04 6.50 79.58 6.68Q79.13 6.86 78.87 7.16Q78.61 7.46 78.61 7.81L78.61 7.81Q78.61 8.39 79.09 8.71Q79.56 9.03 80.77 9.24L80.77 9.24Q82.19 9.48 82.78 9.93Q83.37 10.37 83.37 11.19L83.37 11.19Q83.37 12.08 82.61 12.62Q81.84 13.16 80.56 13.16L80.56 13.16ZM84.99 5.22L91.43 8.41L91.43 9.24L84.99 12.43L84.99 11.69L90.87 8.82L84.99 5.96L84.99 5.22Z"></path></g><defs data-v-423bf9ae=""><linearGradient data-v-423bf9ae="" gradientTransform="rotate(25)" id="a2fc91e5-8d91-4c37-b729-dfb99233f6e2" x1="0%" y1="0%" x2="100%" y2="0%"><stop data-v-423bf9ae="" offset="0%" style="stop-color: rgb(141, 44, 227); stop-opacity: 1;"></stop><stop data-v-423bf9ae="" offset="100%" style="stop-color: rgb(247, 198, 246); stop-opacity: 1;"></stop></linearGradient></defs><g data-v-423bf9ae="" id="ad1517db-07cf-4e11-bd64-c1db673424cb" transform="matrix(1.1241838932037354,0,0,1.1241838932037354,-12.461485862731934,-10.238226890563965)" stroke="none" fill="url(#a2fc91e5-8d91-4c37-b729-dfb99233f6e2)"><path d="M66.725 12.849a39.782 39.782 0 00-14.936-2.878c-20.17 0-37.248 15.072-39.723 35.057a40.502 40.502 0 00-.306 4.974c0 22.071 17.957 40.027 40.029 40.027S91.82 72.073 91.82 50.002c0-16.439-9.849-31.023-25.095-37.153zm-14.936 74.18c-20.418 0-37.029-16.61-37.029-37.027 0-1.543.095-3.092.284-4.604C17.333 26.912 33.13 12.971 51.79 12.971c4.783 0 9.433.895 13.815 2.661 14.104 5.672 23.215 19.163 23.215 34.37 0 20.417-16.612 37.027-37.031 37.027zM39.907 34.577a1.502 1.502 0 00-2.121.061L24.257 48.966a1.502 1.502 0 000 2.06l13.529 14.336a1.502 1.502 0 002.12.062 1.5 1.5 0 00.062-2.12L27.411 49.997l12.557-13.299a1.502 1.502 0 00-.061-2.121zm37.698 14.398L64.077 34.639a1.5 1.5 0 00-2.183 2.058l12.559 13.306-12.557 13.299a1.502 1.502 0 001.09 2.53c.398 0 .797-.158 1.092-.471l13.529-14.327a1.499 1.499 0 00-.002-2.059zm-20.707-14.52a1.499 1.499 0 00-1.938.863l-10.857 28.29a1.5 1.5 0 102.801 1.076l10.857-28.29a1.5 1.5 0 00-.863-1.939z"></path></g><!----><g data-v-423bf9ae="" id="d6d5cd32-6223-4f1e-ae22-ae30ce8992f1" fill="#000000" transform="matrix(1.255110740661621,0,0,1.255110740661621,95.98257446289062,55.24312973022461)"><path d="M16.80 9.91C16.66 9.65 16.46 9.39 16.23 9.21C15.99 9.03 15.74 8.88 15.44 8.75C15.15 8.62 14.83 8.51 14.52 8.41C14.21 8.32 13.90 8.20 13.61 8.11C13.31 7.99 13.05 7.87 12.81 7.71C12.57 7.56 12.39 7.38 12.25 7.15C12.11 6.93 12.03 6.65 12.03 6.31C12.03 6.06 12.08 5.82 12.18 5.59C12.28 5.35 12.42 5.15 12.60 4.97C12.78 4.79 13.01 4.65 13.29 4.55C13.57 4.45 13.87 4.40 14.24 4.40C14.91 4.40 15.53 4.51 16.09 4.75C16.13 5.54 16.16 5.99 16.16 6.06C16.17 6.29 16.25 6.41 16.45 6.41L16.79 6.41L16.79 4.38C15.90 4.00 15.06 3.81 14.24 3.81C13.78 3.81 13.37 3.88 13.01 4.02C12.64 4.16 12.35 4.34 12.11 4.58C11.87 4.82 11.68 5.08 11.55 5.39C11.42 5.70 11.37 6.02 11.37 6.36C11.37 6.78 11.44 7.14 11.58 7.42C11.72 7.70 11.91 7.92 12.15 8.12C12.39 8.32 12.64 8.46 12.94 8.58C13.23 8.71 13.55 8.82 13.86 8.92C14.17 9.02 14.46 9.11 14.77 9.21C15.06 9.31 15.33 9.45 15.57 9.60C15.81 9.76 15.99 9.94 16.13 10.16C16.27 10.39 16.34 10.68 16.34 11.03C16.34 11.35 16.28 11.66 16.17 11.94C16.06 12.22 15.90 12.46 15.69 12.67C15.48 12.88 15.22 13.05 14.91 13.16C14.60 13.29 14.25 13.33 13.86 13.33C13.08 13.33 12.42 13.20 11.89 12.95C11.87 12.75 11.87 12.54 11.86 12.32C11.84 12.10 11.84 11.91 11.83 11.76C11.82 11.61 11.82 11.52 11.82 11.51C11.80 11.28 11.70 11.17 11.51 11.17L11.17 11.17L11.17 13.02L11.17 13.20L11.17 13.38C12.03 13.75 12.91 13.93 13.83 13.93C14.34 13.93 14.78 13.85 15.18 13.69C15.57 13.54 15.90 13.31 16.17 13.05C16.44 12.78 16.66 12.46 16.80 12.10C16.94 11.73 17.01 11.34 17.01 10.92C17.01 10.51 16.94 10.18 16.80 9.91ZM34.54 8.86C34.54 8.11 34.41 7.41 34.19 6.79C33.96 6.17 33.64 5.64 33.22 5.19C32.80 4.75 32.31 4.40 31.74 4.16C31.16 3.92 30.51 3.79 29.81 3.79C29.11 3.79 28.48 3.92 27.90 4.16C27.33 4.40 26.82 4.75 26.40 5.19C25.98 5.64 25.66 6.17 25.44 6.79C25.21 7.41 25.09 8.11 25.09 8.86C25.09 9.63 25.21 10.33 25.44 10.95C25.66 11.56 25.98 12.10 26.40 12.54C26.82 12.99 27.33 13.33 27.90 13.57C28.48 13.80 29.11 13.93 29.81 13.93C30.51 13.93 31.16 13.80 31.74 13.57C32.31 13.33 32.80 12.99 33.22 12.54C33.64 12.10 33.96 11.56 34.19 10.95C34.41 10.33 34.54 9.63 34.54 8.86ZM33.78 8.86C33.78 9.56 33.70 10.18 33.50 10.72C33.31 11.27 33.04 11.75 32.69 12.12C32.34 12.50 31.92 12.81 31.43 13.01C30.94 13.20 30.41 13.30 29.81 13.30C29.22 13.30 28.69 13.20 28.20 13.01C27.71 12.81 27.29 12.50 26.94 12.12C26.59 11.75 26.31 11.27 26.11 10.72C25.91 10.18 25.83 9.56 25.83 8.86C25.83 8.18 25.91 7.55 26.11 7.00C26.31 6.45 26.59 5.98 26.94 5.60C27.29 5.22 27.71 4.91 28.20 4.72C28.69 4.52 29.22 4.41 29.81 4.41C30.41 4.41 30.94 4.52 31.43 4.72C31.92 4.91 32.34 5.22 32.69 5.60C33.04 5.98 33.31 6.45 33.50 7.00C33.70 7.55 33.78 8.18 33.78 8.86ZM49.94 3.92L49.59 3.92L44.00 3.92L42.81 3.92L42.81 4.19C42.81 4.34 42.91 4.42 43.09 4.44L43.23 4.44C43.30 4.44 43.40 4.45 43.54 4.45C43.68 4.45 43.83 4.47 44.00 4.47L44.00 13.26C43.83 13.26 43.68 13.27 43.54 13.27C43.40 13.27 43.30 13.29 43.23 13.29L43.09 13.29C42.91 13.30 42.81 13.38 42.81 13.54L42.81 13.82L44.00 13.82L44.72 13.82L45.89 13.82L45.89 13.54C45.89 13.38 45.81 13.30 45.63 13.29L45.49 13.29C45.42 13.29 45.32 13.27 45.18 13.27C45.04 13.27 44.88 13.26 44.72 13.26L44.72 9.27L48.41 9.27L48.41 8.67L44.72 8.67L44.72 4.51L49.32 4.51C49.35 5.18 49.38 5.56 49.38 5.63C49.39 5.85 49.49 5.96 49.69 5.96L50.02 5.96L50.02 3.92ZM65.87 3.92L65.67 3.92L58.38 3.92L58.17 3.92L58.07 3.92L58.07 5.96L58.42 5.96C58.62 5.96 58.70 5.85 58.72 5.63C58.72 5.53 58.74 5.17 58.77 4.52L61.67 4.52L61.67 13.26C61.50 13.26 61.36 13.27 61.22 13.27C61.08 13.27 60.97 13.29 60.90 13.29L60.77 13.29C60.59 13.30 60.49 13.38 60.49 13.54L60.49 13.82L61.67 13.82L62.38 13.82L63.57 13.82L63.57 13.54C63.57 13.38 63.48 13.30 63.29 13.29L63.15 13.29C63.08 13.29 62.99 13.27 62.85 13.27C62.71 13.27 62.55 13.26 62.38 13.26L62.38 4.52L65.27 4.52C65.31 5.24 65.32 5.60 65.32 5.63C65.34 5.85 65.44 5.96 65.63 5.96L65.97 5.96L65.97 3.92ZM87.88 3.92L87.33 3.92L87.29 3.92L85.82 3.92L85.82 4.19C85.82 4.34 85.90 4.42 86.09 4.44L86.21 4.44C86.27 4.44 86.37 4.45 86.51 4.45C86.65 4.45 86.79 4.47 86.95 4.47L84.57 12.24C84.55 12.33 84.52 12.43 84.50 12.54C84.49 12.66 84.46 12.75 84.43 12.87C84.41 12.75 84.39 12.63 84.36 12.53L84.28 12.24L81.48 4.10C81.45 4.05 81.42 3.99 81.38 3.96C81.34 3.93 81.28 3.92 81.21 3.92L81.02 3.92C80.95 3.92 80.89 3.93 80.85 3.98C80.81 4.02 80.77 4.05 80.75 4.10L77.95 12.25C77.92 12.35 77.90 12.43 77.87 12.54C77.84 12.64 77.83 12.75 77.80 12.88C77.78 12.78 77.76 12.67 77.73 12.54C77.71 12.43 77.69 12.33 77.66 12.24L75.28 4.47C75.45 4.47 75.59 4.45 75.71 4.45C75.84 4.45 75.92 4.44 75.98 4.44L76.09 4.44C76.27 4.42 76.37 4.34 76.37 4.19L76.37 3.92L74.90 3.92L74.31 3.92L73.71 3.92L73.71 4.19C73.71 4.34 73.81 4.42 73.99 4.44L74.09 4.44C74.13 4.44 74.17 4.45 74.24 4.45C74.31 4.45 74.40 4.47 74.48 4.47L77.43 13.82L78.06 13.82L81.00 5.22C81.05 5.11 81.07 5.00 81.10 4.87C81.13 5.00 81.16 5.11 81.20 5.22L84.13 13.82L84.77 13.82L87.71 4.47C87.79 4.47 87.86 4.45 87.93 4.45C88.00 4.45 88.06 4.44 88.10 4.44L88.20 4.44C88.38 4.42 88.47 4.34 88.47 4.19L88.47 3.92ZM103.01 13.22L102.55 13.17L98.77 3.91L98.06 3.91L94.26 13.17L93.81 13.22C93.63 13.23 93.55 13.33 93.55 13.50L93.55 13.82L94.00 13.82L94.29 13.82L94.54 13.82L94.64 13.82L95.96 13.82L95.96 13.50C95.96 13.31 95.84 13.23 95.63 13.22C95.62 13.22 95.59 13.20 95.55 13.20C95.51 13.20 95.45 13.19 95.35 13.19C95.26 13.19 95.13 13.19 94.99 13.17L95.97 10.75L96.04 10.57L100.77 10.57L100.84 10.75L101.82 13.17C101.68 13.19 101.57 13.19 101.47 13.19C101.37 13.19 101.30 13.20 101.26 13.20C101.22 13.20 101.19 13.22 101.18 13.22C100.97 13.23 100.86 13.31 100.86 13.50L100.86 13.82L102.17 13.82L102.27 13.82L102.54 13.82L102.82 13.82L103.28 13.82L103.28 13.50C103.28 13.33 103.19 13.23 103.01 13.22ZM98.21 5.22C98.24 5.14 98.28 5.04 98.31 4.94C98.34 4.84 98.38 4.75 98.41 4.63C98.43 4.75 98.48 4.84 98.50 4.94C98.53 5.04 98.57 5.12 98.60 5.21L100.56 10.04L96.26 10.04ZM119.50 13.29L119.41 13.29L119.22 13.29C119.14 13.29 119.06 13.27 118.97 13.27L116.00 9.53C115.92 9.42 115.81 9.32 115.70 9.25C116.13 9.21 116.52 9.11 116.87 8.96C117.22 8.81 117.50 8.61 117.75 8.37C117.99 8.13 118.19 7.85 118.31 7.55C118.44 7.24 118.51 6.89 118.51 6.51C118.51 5.66 118.23 5.03 117.67 4.58C117.11 4.14 116.26 3.92 115.11 3.92L112.70 3.92L111.52 3.92L111.52 4.19C111.52 4.34 111.61 4.42 111.79 4.44L111.93 4.44C112 4.44 112.10 4.45 112.24 4.45C112.38 4.45 112.53 4.47 112.70 4.47L112.70 13.26C112.53 13.26 112.38 13.27 112.24 13.27C112.10 13.27 112 13.29 111.93 13.29L111.79 13.29C111.61 13.30 111.51 13.38 111.51 13.54L111.51 13.82L112.70 13.82L113.41 13.82L114.59 13.82L114.59 13.54C114.59 13.38 114.49 13.30 114.31 13.29L114.17 13.29C114.10 13.29 114.00 13.27 113.86 13.27C113.72 13.27 113.58 13.26 113.41 13.26L113.41 9.34L114.59 9.34C114.79 9.34 114.93 9.35 115.01 9.39C115.09 9.44 115.18 9.52 115.26 9.62L118.44 13.64C118.50 13.71 118.54 13.75 118.59 13.78C118.65 13.80 118.72 13.82 118.79 13.82L118.86 13.82L119.41 13.82L119.77 13.82L119.77 13.54C119.77 13.38 119.69 13.30 119.50 13.29ZM115.01 8.81L113.41 8.81L113.41 4.48L115.11 4.48C115.99 4.48 116.66 4.66 117.12 5.00C117.59 5.33 117.81 5.87 117.81 6.57C117.81 6.92 117.75 7.21 117.63 7.49C117.50 7.77 117.31 7.99 117.07 8.19C116.83 8.39 116.54 8.55 116.19 8.65C115.84 8.75 115.44 8.81 115.01 8.81ZM129.16 3.92L127.97 3.92L127.97 4.19C127.97 4.34 128.07 4.42 128.25 4.44L128.39 4.44C128.46 4.44 128.56 4.45 128.70 4.45C128.84 4.45 129.00 4.47 129.16 4.47L129.16 13.26C129.00 13.26 128.84 13.27 128.70 13.27C128.56 13.27 128.46 13.29 128.39 13.29L128.25 13.29C128.07 13.30 127.99 13.38 127.99 13.54L127.99 13.82L129.16 13.82L135.10 13.82L135.10 13.22L135.10 11.76L134.75 11.76C134.55 11.76 134.47 11.89 134.46 12.11C134.46 12.14 134.44 12.19 134.44 12.29C134.44 12.39 134.44 12.53 134.43 12.74C134.41 12.95 134.40 13.09 134.40 13.22L129.88 13.22L129.88 9.09L133.83 9.09L133.83 8.51L129.88 8.51L129.88 4.51L134.40 4.51C134.43 5.12 134.46 5.50 134.46 5.63C134.47 5.85 134.55 5.96 134.75 5.96L135.10 5.96L135.10 4.51L135.10 3.92ZM163.06 6.80C162.83 6.19 162.51 5.68 162.09 5.25C161.67 4.82 161.18 4.48 160.61 4.26C160.03 4.03 159.38 3.92 158.68 3.92L155.25 3.92L154.06 3.92L154.06 4.19C154.06 4.34 154.15 4.42 154.34 4.44L154.48 4.44C154.55 4.44 154.64 4.45 154.78 4.45C154.92 4.45 155.08 4.47 155.25 4.47L155.25 13.26C155.08 13.26 154.92 13.27 154.78 13.27C154.64 13.27 154.55 13.29 154.48 13.29L154.34 13.29C154.15 13.30 154.06 13.38 154.06 13.54L154.06 13.82L155.25 13.82L158.68 13.82C159.38 13.82 160.03 13.71 160.61 13.48C161.18 13.26 161.67 12.92 162.09 12.49C162.51 12.05 162.83 11.54 163.06 10.92C163.28 10.30 163.41 9.63 163.41 8.86C163.41 8.11 163.28 7.42 163.06 6.80ZM162.37 10.72C162.18 11.27 161.92 11.72 161.57 12.10C161.22 12.47 160.80 12.75 160.31 12.95C159.82 13.15 159.28 13.24 158.68 13.24L155.96 13.24L155.96 4.49L158.68 4.49C159.28 4.49 159.82 4.59 160.31 4.79C160.80 4.98 161.22 5.26 161.57 5.64C161.92 6.02 162.18 6.47 162.37 7.01C162.57 7.56 162.67 8.18 162.67 8.86C162.67 9.56 162.57 10.18 162.37 10.72ZM172.89 3.92L171.70 3.92L171.70 4.19C171.70 4.34 171.79 4.42 171.98 4.44L172.12 4.44C172.19 4.44 172.28 4.45 172.42 4.45C172.56 4.45 172.72 4.47 172.89 4.47L172.89 13.26C172.72 13.26 172.56 13.27 172.42 13.27C172.28 13.27 172.19 13.29 172.12 13.29L171.98 13.29C171.79 13.30 171.71 13.38 171.71 13.54L171.71 13.82L172.89 13.82L178.82 13.82L178.82 13.22L178.82 11.76L178.47 11.76C178.28 11.76 178.19 11.89 178.18 12.11C178.18 12.14 178.16 12.19 178.16 12.29C178.16 12.39 178.16 12.53 178.15 12.74C178.14 12.95 178.12 13.09 178.12 13.22L173.60 13.22L173.60 9.09L177.55 9.09L177.55 8.51L173.60 8.51L173.60 4.51L178.12 4.51C178.15 5.12 178.18 5.50 178.18 5.63C178.19 5.85 178.28 5.96 178.47 5.96L178.82 5.96L178.82 4.51L178.82 3.92ZM196.31 3.92L195.75 3.92L195.72 3.92L194.25 3.92L194.25 4.19C194.25 4.34 194.33 4.42 194.52 4.44L194.64 4.44C194.70 4.44 194.78 4.45 194.91 4.45C195.03 4.45 195.17 4.47 195.33 4.47L192.12 12.32C192.04 12.53 191.97 12.75 191.91 13.01C191.86 12.77 191.79 12.53 191.70 12.32L188.47 4.47C188.62 4.47 188.78 4.45 188.90 4.45C189.03 4.45 189.11 4.44 189.17 4.44L189.28 4.44C189.46 4.42 189.56 4.34 189.56 4.19L189.56 3.92L188.06 3.92L187.50 3.92L186.90 3.92L186.90 4.19C186.90 4.34 187.00 4.42 187.18 4.44L187.28 4.44C187.32 4.44 187.39 4.45 187.46 4.45C187.53 4.45 187.63 4.47 187.73 4.47L191.59 13.82L192.22 13.82L196.08 4.47C196.18 4.47 196.28 4.45 196.35 4.45C196.42 4.45 196.49 4.44 196.53 4.44L196.62 4.44C196.80 4.42 196.90 4.34 196.90 4.19L196.90 3.92ZM206.14 3.92L204.95 3.92L204.95 4.19C204.95 4.34 205.04 4.42 205.23 4.44L205.37 4.44C205.44 4.44 205.53 4.45 205.67 4.45C205.81 4.45 205.97 4.47 206.14 4.47L206.14 13.26C205.97 13.26 205.81 13.27 205.67 13.27C205.53 13.27 205.44 13.29 205.37 13.29L205.23 13.29C205.04 13.30 204.96 13.38 204.96 13.54L204.96 13.82L206.14 13.82L212.07 13.82L212.07 13.22L212.07 11.76L211.72 11.76C211.53 11.76 211.44 11.89 211.43 12.11C211.43 12.14 211.41 12.19 211.41 12.29C211.41 12.39 211.41 12.53 211.40 12.74C211.39 12.95 211.37 13.09 211.37 13.22L206.85 13.22L206.85 9.09L210.80 9.09L210.80 8.51L206.85 8.51L206.85 4.51L211.37 4.51C211.40 5.12 211.43 5.50 211.43 5.63C211.44 5.85 211.53 5.96 211.72 5.96L212.07 5.96L212.07 4.51L212.07 3.92ZM227.02 11.97C226.83 11.97 226.74 12.08 226.73 12.31C226.73 12.32 226.73 12.38 226.72 12.43C226.70 12.49 226.70 12.59 226.69 12.71C226.67 12.84 226.66 13.01 226.65 13.20L222.56 13.20L222.56 4.47C222.73 4.47 222.87 4.45 223.01 4.45C223.15 4.45 223.26 4.44 223.33 4.44L223.45 4.44C223.64 4.42 223.73 4.34 223.73 4.19L223.73 3.92L222.56 3.92L221.84 3.92L220.65 3.92L220.65 4.19C220.65 4.34 220.75 4.42 220.93 4.44L221.07 4.44C221.14 4.44 221.24 4.45 221.38 4.45C221.52 4.45 221.68 4.47 221.84 4.47L221.84 13.26C221.68 13.26 221.52 13.27 221.38 13.27C221.24 13.27 221.14 13.29 221.07 13.29L220.93 13.29C220.75 13.30 220.65 13.38 220.65 13.54L220.65 13.82L221.84 13.82L227.12 13.82L227.25 13.82L227.37 13.82L227.37 13.55L227.37 12.99L227.37 11.97L227.09 11.97ZM244.51 8.86C244.51 8.11 244.38 7.41 244.16 6.79C243.94 6.17 243.61 5.64 243.19 5.19C242.77 4.75 242.28 4.40 241.71 4.16C241.14 3.92 240.48 3.79 239.78 3.79C239.08 3.79 238.45 3.92 237.87 4.16C237.30 4.40 236.80 4.75 236.38 5.19C235.96 5.64 235.63 6.17 235.41 6.79C235.19 7.41 235.06 8.11 235.06 8.86C235.06 9.63 235.19 10.33 235.41 10.95C235.63 11.56 235.96 12.10 236.38 12.54C236.80 12.99 237.30 13.33 237.87 13.57C238.45 13.80 239.08 13.93 239.78 13.93C240.48 13.93 241.14 13.80 241.71 13.57C242.28 13.33 242.77 12.99 243.19 12.54C243.61 12.10 243.94 11.56 244.16 10.95C244.38 10.33 244.51 9.63 244.51 8.86ZM243.75 8.86C243.75 9.56 243.67 10.18 243.47 10.72C243.28 11.27 243.01 11.75 242.66 12.12C242.31 12.50 241.89 12.81 241.40 13.01C240.91 13.20 240.38 13.30 239.78 13.30C239.19 13.30 238.66 13.20 238.17 13.01C237.68 12.81 237.26 12.50 236.91 12.12C236.56 11.75 236.28 11.27 236.08 10.72C235.89 10.18 235.80 9.56 235.80 8.86C235.80 8.18 235.89 7.55 236.08 7.00C236.28 6.45 236.56 5.98 236.91 5.60C237.26 5.22 237.68 4.91 238.17 4.72C238.66 4.52 239.19 4.41 239.78 4.41C240.38 4.41 240.91 4.52 241.40 4.72C241.89 4.91 242.31 5.22 242.66 5.60C243.01 5.98 243.28 6.45 243.47 7.00C243.67 7.55 243.75 8.18 243.75 8.86ZM259.01 4.68C258.43 4.17 257.54 3.92 256.38 3.92L253.97 3.92L252.78 3.92L252.78 4.19C252.78 4.34 252.88 4.42 253.06 4.44L253.20 4.44C253.27 4.44 253.37 4.45 253.51 4.45C253.65 4.45 253.81 4.47 253.97 4.47L253.97 13.26C253.81 13.26 253.65 13.27 253.51 13.27C253.37 13.27 253.27 13.29 253.20 13.29L253.06 13.29C252.88 13.30 252.78 13.38 252.78 13.54L252.78 13.82L253.97 13.82L254.69 13.82L255.86 13.82L255.86 13.54C255.86 13.38 255.77 13.30 255.58 13.29L255.46 13.29C255.39 13.29 255.28 13.27 255.14 13.27C255.00 13.27 254.86 13.26 254.69 13.26L254.69 9.83L256.38 9.83C256.93 9.83 257.42 9.74 257.85 9.60C258.29 9.45 258.65 9.25 258.96 8.99C259.27 8.72 259.50 8.41 259.66 8.05C259.83 7.69 259.90 7.29 259.90 6.86C259.90 5.92 259.60 5.18 259.01 4.68ZM258.99 7.81C258.86 8.11 258.68 8.36 258.44 8.57C258.20 8.78 257.91 8.95 257.56 9.07C257.21 9.20 256.82 9.25 256.38 9.25L254.69 9.25L254.69 4.48L256.38 4.48C257.31 4.48 258.01 4.69 258.48 5.10C258.94 5.50 259.18 6.09 259.18 6.85C259.18 7.20 259.11 7.52 258.99 7.81ZM269.28 3.92L268.09 3.92L268.09 4.19C268.09 4.34 268.18 4.42 268.37 4.44L268.51 4.44C268.58 4.44 268.67 4.45 268.81 4.45C268.95 4.45 269.11 4.47 269.28 4.47L269.28 13.26C269.11 13.26 268.95 13.27 268.81 13.27C268.67 13.27 268.58 13.29 268.51 13.29L268.37 13.29C268.18 13.30 268.10 13.38 268.10 13.54L268.10 13.82L269.28 13.82L275.21 13.82L275.21 13.22L275.21 11.76L274.86 11.76C274.67 11.76 274.58 11.89 274.57 12.11C274.57 12.14 274.55 12.19 274.55 12.29C274.55 12.39 274.55 12.53 274.54 12.74C274.53 12.95 274.51 13.09 274.51 13.22L269.99 13.22L269.99 9.09L273.94 9.09L273.94 8.51L269.99 8.51L269.99 4.51L274.51 4.51C274.54 5.12 274.57 5.50 274.57 5.63C274.58 5.85 274.67 5.96 274.86 5.96L275.21 5.96L275.21 4.51L275.21 3.92ZM291.79 13.29L291.69 13.29L291.51 13.29C291.42 13.29 291.34 13.27 291.26 13.27L288.29 9.53C288.20 9.42 288.09 9.32 287.98 9.25C288.41 9.21 288.81 9.11 289.16 8.96C289.51 8.81 289.79 8.61 290.04 8.37C290.28 8.13 290.47 7.85 290.60 7.55C290.72 7.24 290.79 6.89 290.79 6.51C290.79 5.66 290.51 5.03 289.95 4.58C289.39 4.14 288.54 3.92 287.39 3.92L284.98 3.92L283.81 3.92L283.81 4.19C283.81 4.34 283.89 4.42 284.07 4.44L284.21 4.44C284.28 4.44 284.38 4.45 284.52 4.45C284.66 4.45 284.82 4.47 284.98 4.47L284.98 13.26C284.82 13.26 284.66 13.27 284.52 13.27C284.38 13.27 284.28 13.29 284.21 13.29L284.07 13.29C283.89 13.30 283.79 13.38 283.79 13.54L283.79 13.82L284.98 13.82L285.70 13.82L286.87 13.82L286.87 13.54C286.87 13.38 286.78 13.30 286.59 13.29L286.45 13.29C286.38 13.29 286.29 13.27 286.15 13.27C286.01 13.27 285.87 13.26 285.70 13.26L285.70 9.34L286.87 9.34C287.07 9.34 287.21 9.35 287.29 9.39C287.38 9.44 287.46 9.52 287.55 9.62L290.72 13.64C290.78 13.71 290.82 13.75 290.88 13.78C290.93 13.80 291.00 13.82 291.07 13.82L291.14 13.82L291.69 13.82L292.05 13.82L292.05 13.54C292.05 13.38 291.97 13.30 291.79 13.29ZM287.29 8.81L285.70 8.81L285.70 4.48L287.39 4.48C288.27 4.48 288.95 4.66 289.41 5.00C289.87 5.33 290.09 5.87 290.09 6.57C290.09 6.92 290.04 7.21 289.91 7.49C289.79 7.77 289.59 7.99 289.35 8.19C289.11 8.39 288.82 8.55 288.47 8.65C288.12 8.75 287.73 8.81 287.29 8.81Z"></path></g></svg>