<svg data-v-423bf9ae="" xmlns="http://www.w3.org/2000/svg" viewBox="0 0 440.6693594275214 60" class="font"><!----><!----><!----><g data-v-423bf9ae="" id="2e56d60a-7201-46f7-8e79-9b92951a8c08" fill="black" transform="matrix(4.897958755493164,0,0,4.897958755493164,-7.151006698608398,-18.514284133911133)"><path d="M2.16 3.78L2.16 13.02L1.46 13.02L1.46 3.78L2.16 3.78ZM8.40 12.31Q9.45 12.31 10.05 12.74Q10.65 13.17 10.65 13.90L10.65 13.90Q10.65 14.53 10.23 15.02Q9.80 15.50 9.04 15.76Q8.29 16.03 7.32 16.03L7.32 16.03Q5.74 16.03 4.90 15.52Q4.06 15.01 4.06 14.17L4.06 14.17Q4.06 13.62 4.40 13.23Q4.73 12.84 5.32 12.67L5.32 12.67Q4.90 12.49 4.66 12.17Q4.41 11.84 4.41 11.45L4.41 11.45Q4.41 10.95 4.74 10.60Q5.07 10.25 5.63 10.09L5.63 10.09Q5.05 9.80 4.75 9.30Q4.44 8.81 4.44 8.16L4.44 8.16Q4.44 7.13 5.21 6.50Q5.99 5.88 7.28 5.88L7.28 5.88Q8.18 5.88 8.86 6.20L8.86 6.20Q8.95 5.53 9.42 5.13Q9.90 4.73 10.61 4.73L10.61 4.73L10.78 5.35Q10.12 5.35 9.74 5.64Q9.37 5.94 9.31 6.48L9.31 6.48Q10.11 7.13 10.11 8.16L10.11 8.16Q10.11 9.20 9.33 9.83Q8.55 10.46 7.28 10.46L7.28 10.46Q6.85 10.46 6.33 10.36L6.33 10.36Q5.74 10.43 5.41 10.70Q5.08 10.98 5.08 11.35L5.08 11.35Q5.08 11.80 5.46 12.05Q5.84 12.31 6.59 12.31L6.59 12.31L8.40 12.31ZM5.14 8.16Q5.14 8.95 5.71 9.41Q6.29 9.87 7.28 9.87L7.28 9.87Q8.26 9.87 8.83 9.41Q9.41 8.95 9.41 8.16L9.41 8.16Q9.41 7.38 8.83 6.92Q8.26 6.47 7.28 6.47L7.28 6.47Q6.30 6.47 5.72 6.92Q5.14 7.38 5.14 8.16L5.14 8.16ZM7.39 15.44Q8.58 15.44 9.30 15.03Q10.02 14.62 10.02 13.99L10.02 13.99Q10.02 13.48 9.57 13.20Q9.11 12.91 8.25 12.91L8.25 12.91L6.44 12.91Q5.64 12.91 5.17 13.22Q4.70 13.54 4.70 14.06L4.70 14.06Q4.70 14.70 5.40 15.07Q6.10 15.44 7.39 15.44L7.39 15.44ZM14.91 5.88Q16.46 5.88 17.35 6.85Q18.24 7.83 18.24 9.52L18.24 9.52Q18.24 11.21 17.35 12.19Q16.46 13.16 14.91 13.16L14.91 13.16Q13.36 13.16 12.47 12.19Q11.58 11.21 11.58 9.52L11.58 9.52Q11.58 7.83 12.47 6.85Q13.36 5.88 14.91 5.88L14.91 5.88ZM14.91 6.48Q13.68 6.48 12.98 7.29Q12.28 8.11 12.28 9.52L12.28 9.52Q12.28 10.93 12.98 11.75Q13.68 12.56 14.91 12.56L14.91 12.56Q16.14 12.56 16.84 11.75Q17.54 10.93 17.54 9.52L17.54 9.52Q17.54 8.11 16.84 7.29Q16.14 6.48 14.91 6.48L14.91 6.48ZM23.23 5.88Q23.79 5.88 24.11 6.12L24.11 6.12L23.93 6.78Q23.60 6.52 23.03 6.52L23.03 6.52Q22.50 6.52 22.03 6.85Q21.56 7.18 21.27 7.78Q20.99 8.37 20.99 9.10L20.99 9.10L20.99 13.02L20.29 13.02L20.29 6.02L20.87 6.02L20.96 7.45Q21.25 6.71 21.83 6.29Q22.41 5.88 23.23 5.88L23.23 5.88ZM35.94 5.22L35.94 5.96L30.06 8.82L35.94 11.69L35.94 12.43L29.50 9.24L29.50 8.41L35.94 5.22ZM46.89 3.78L46.89 13.02L46.21 13.02L46.21 6.13L46.30 4.45L46.28 4.45L42.91 13.02L42.27 13.02L38.89 4.45L38.88 4.45L38.96 6.13L38.96 13.02L38.29 13.02L38.29 3.78L39.34 3.78L42.13 10.78L42.59 12.19L42.60 12.19L43.05 10.79L45.84 3.78L46.89 3.78ZM52.36 5.88Q53.91 5.88 54.80 6.85Q55.69 7.83 55.69 9.52L55.69 9.52Q55.69 11.21 54.80 12.19Q53.91 13.16 52.36 13.16L52.36 13.16Q50.81 13.16 49.92 12.19Q49.03 11.21 49.03 9.52L49.03 9.52Q49.03 7.83 49.92 6.85Q50.81 5.88 52.36 5.88L52.36 5.88ZM52.36 6.48Q51.13 6.48 50.43 7.29Q49.73 8.11 49.73 9.52L49.73 9.52Q49.73 10.93 50.43 11.75Q51.13 12.56 52.36 12.56L52.36 12.56Q53.59 12.56 54.29 11.75Q54.99 10.93 54.99 9.52L54.99 9.52Q54.99 8.11 54.29 7.29Q53.59 6.48 52.36 6.48L52.36 6.48ZM60.68 5.88Q61.24 5.88 61.56 6.12L61.56 6.12L61.38 6.78Q61.05 6.52 60.48 6.52L60.48 6.52Q59.95 6.52 59.48 6.85Q59.01 7.18 58.72 7.78Q58.44 8.37 58.44 9.10L58.44 9.10L58.44 13.02L57.74 13.02L57.74 6.02L58.32 6.02L58.41 7.45Q58.70 6.71 59.28 6.29Q59.86 5.88 60.68 5.88L60.68 5.88ZM68.47 12.56Q68.82 12.56 69.02 12.46L69.02 12.46L68.98 13.02Q68.73 13.16 68.29 13.16L68.29 13.16Q67.80 13.16 67.49 12.89Q67.19 12.63 67.14 11.97L67.14 11.97Q66.82 12.53 66.11 12.84Q65.39 13.16 64.61 13.16L64.61 13.16Q63.57 13.16 62.95 12.70Q62.33 12.24 62.33 11.38L62.33 11.38Q62.33 9.76 64.99 9.28L64.99 9.28L67.13 8.90L67.13 8.29Q67.13 7.45 66.63 6.97Q66.14 6.50 65.23 6.50L65.23 6.50Q63.56 6.50 62.99 7.98L62.99 7.98L62.45 7.59Q62.76 6.76 63.48 6.32Q64.19 5.88 65.23 5.88L65.23 5.88Q66.44 5.88 67.14 6.47Q67.83 7.07 67.83 8.20L67.83 8.20L67.83 11.82Q67.83 12.56 68.47 12.56L68.47 12.56ZM64.68 12.54Q65.27 12.54 65.83 12.34Q66.39 12.14 66.76 11.74Q67.13 11.34 67.13 10.78L67.13 10.78L67.13 9.48L65.21 9.83Q64.08 10.04 63.56 10.42Q63.04 10.79 63.04 11.38L63.04 11.38Q63.04 11.94 63.48 12.24Q63.91 12.54 64.68 12.54L64.68 12.54ZM76.27 9.35Q76.27 9.59 76.24 9.81L76.24 9.81L70.69 9.81Q70.76 11.10 71.45 11.82Q72.14 12.54 73.30 12.54L73.30 12.54Q74.13 12.54 74.72 12.21Q75.32 11.87 75.59 11.26L75.59 11.26L76.17 11.56Q75.78 12.33 75.05 12.75Q74.33 13.16 73.30 13.16L73.30 13.16Q71.75 13.16 70.88 12.19Q70 11.23 70 9.52L70 9.52Q70 7.81 70.85 6.85Q71.69 5.88 73.22 5.88L73.22 5.88Q74.65 5.88 75.46 6.83Q76.27 7.78 76.27 9.35L76.27 9.35ZM73.22 6.50Q72.09 6.50 71.43 7.20Q70.77 7.91 70.69 9.18L70.69 9.18L75.61 9.18Q75.54 7.92 74.92 7.21Q74.30 6.50 73.22 6.50L73.22 6.50ZM80.56 13.16Q79.49 13.16 78.71 12.74Q77.92 12.32 77.63 11.52L77.63 11.52L78.20 11.14Q78.41 11.84 79.06 12.19Q79.70 12.54 80.64 12.54L80.64 12.54Q81.59 12.54 82.13 12.18Q82.67 11.82 82.67 11.21L82.67 11.21Q82.67 10.70 82.21 10.39Q81.75 10.08 80.58 9.87L80.58 9.87Q79.11 9.60 78.51 9.16Q77.91 8.71 77.91 7.88L77.91 7.88Q77.91 7.34 78.25 6.87Q78.58 6.41 79.20 6.15Q79.81 5.88 80.60 5.88L80.60 5.88Q81.70 5.88 82.37 6.30Q83.03 6.72 83.29 7.59L83.29 7.59L82.68 7.94Q82.29 6.50 80.60 6.50L80.60 6.50Q80.04 6.50 79.58 6.68Q79.13 6.86 78.87 7.16Q78.61 7.46 78.61 7.81L78.61 7.81Q78.61 8.39 79.09 8.71Q79.56 9.03 80.77 9.24L80.77 9.24Q82.19 9.48 82.78 9.93Q83.37 10.37 83.37 11.19L83.37 11.19Q83.37 12.08 82.61 12.62Q81.84 13.16 80.56 13.16L80.56 13.16ZM84.99 5.22L91.43 8.41L91.43 9.24L84.99 12.43L84.99 11.69L90.87 8.82L84.99 5.96L84.99 5.22Z"></path></g><!----><!----></svg>